<mxfile host="app.diagrams.net" modified="2023-12-30T16:36:37.007Z" agent="Mozilla/5.0 (Windows NT 10.0; Win64; x64) AppleWebKit/537.36 (KHTML, like Gecko) Chrome/120.0.0.0 Safari/537.36 Edg/120.0.0.0" etag="8uUWLN98wTemZN_f564h" version="22.1.16" type="device">
  <diagram name="第 1 页" id="__eRDvS00nwkI7ETc4ea">
    <mxGraphModel dx="1117" dy="1343" grid="1" gridSize="10" guides="1" tooltips="1" connect="1" arrows="1" fold="1" page="0" pageScale="1" pageWidth="827" pageHeight="1169" math="0" shadow="0">
      <root>
        <mxCell id="0" />
        <mxCell id="1" parent="0" />
        <mxCell id="aeTmZDldJjY8Ou2stDxs-23" style="edgeStyle=none;curved=1;rounded=0;orthogonalLoop=1;jettySize=auto;html=1;exitX=0.5;exitY=0;exitDx=0;exitDy=0;entryX=0;entryY=0.5;entryDx=0;entryDy=0;fontSize=12;startSize=8;endSize=8;" edge="1" parent="1" source="aeTmZDldJjY8Ou2stDxs-15" target="aeTmZDldJjY8Ou2stDxs-22">
          <mxGeometry relative="1" as="geometry" />
        </mxCell>
        <mxCell id="aeTmZDldJjY8Ou2stDxs-24" style="edgeStyle=none;curved=1;rounded=0;orthogonalLoop=1;jettySize=auto;html=1;exitX=0.5;exitY=1;exitDx=0;exitDy=0;entryX=0;entryY=0.5;entryDx=0;entryDy=0;fontSize=12;startSize=8;endSize=8;" edge="1" parent="1" source="aeTmZDldJjY8Ou2stDxs-15" target="aeTmZDldJjY8Ou2stDxs-19">
          <mxGeometry relative="1" as="geometry" />
        </mxCell>
        <mxCell id="aeTmZDldJjY8Ou2stDxs-41" value="人像信息" style="edgeLabel;html=1;align=center;verticalAlign=middle;resizable=0;points=[];fontSize=16;" vertex="1" connectable="0" parent="aeTmZDldJjY8Ou2stDxs-24">
          <mxGeometry x="-0.0944" y="2" relative="1" as="geometry">
            <mxPoint as="offset" />
          </mxGeometry>
        </mxCell>
        <mxCell id="aeTmZDldJjY8Ou2stDxs-15" value="用户" style="rounded=0;whiteSpace=wrap;html=1;fontSize=16;" vertex="1" parent="1">
          <mxGeometry x="-340" y="-220" width="120" height="60" as="geometry" />
        </mxCell>
        <mxCell id="aeTmZDldJjY8Ou2stDxs-50" style="edgeStyle=none;curved=1;rounded=0;orthogonalLoop=1;jettySize=auto;html=1;exitX=0.5;exitY=1;exitDx=0;exitDy=0;entryX=0.5;entryY=0;entryDx=0;entryDy=0;fontSize=12;startSize=8;endSize=8;" edge="1" parent="1" source="aeTmZDldJjY8Ou2stDxs-16" target="aeTmZDldJjY8Ou2stDxs-48">
          <mxGeometry relative="1" as="geometry" />
        </mxCell>
        <mxCell id="aeTmZDldJjY8Ou2stDxs-56" value="管理签到信息" style="edgeLabel;html=1;align=center;verticalAlign=middle;resizable=0;points=[];fontSize=16;" vertex="1" connectable="0" parent="aeTmZDldJjY8Ou2stDxs-50">
          <mxGeometry x="-0.259" y="-4" relative="1" as="geometry">
            <mxPoint x="-1" y="17" as="offset" />
          </mxGeometry>
        </mxCell>
        <mxCell id="aeTmZDldJjY8Ou2stDxs-51" style="edgeStyle=none;curved=1;rounded=0;orthogonalLoop=1;jettySize=auto;html=1;exitX=0.5;exitY=0;exitDx=0;exitDy=0;entryX=1;entryY=0.5;entryDx=0;entryDy=0;fontSize=12;startSize=8;endSize=8;" edge="1" parent="1" source="aeTmZDldJjY8Ou2stDxs-16" target="aeTmZDldJjY8Ou2stDxs-47">
          <mxGeometry relative="1" as="geometry" />
        </mxCell>
        <mxCell id="aeTmZDldJjY8Ou2stDxs-55" value="录入个人信息" style="edgeLabel;html=1;align=center;verticalAlign=middle;resizable=0;points=[];fontSize=16;" vertex="1" connectable="0" parent="aeTmZDldJjY8Ou2stDxs-51">
          <mxGeometry x="-0.2681" y="-6" relative="1" as="geometry">
            <mxPoint y="-1" as="offset" />
          </mxGeometry>
        </mxCell>
        <mxCell id="aeTmZDldJjY8Ou2stDxs-16" value="管理员" style="rounded=0;whiteSpace=wrap;html=1;fontSize=16;" vertex="1" parent="1">
          <mxGeometry x="650" y="-150" width="120" height="60" as="geometry" />
        </mxCell>
        <mxCell id="aeTmZDldJjY8Ou2stDxs-31" style="edgeStyle=none;curved=1;rounded=0;orthogonalLoop=1;jettySize=auto;html=1;exitX=1;exitY=0.5;exitDx=0;exitDy=0;entryX=0;entryY=0.5;entryDx=0;entryDy=0;fontSize=12;startSize=8;endSize=8;" edge="1" parent="1" source="aeTmZDldJjY8Ou2stDxs-17" target="aeTmZDldJjY8Ou2stDxs-18">
          <mxGeometry relative="1" as="geometry" />
        </mxCell>
        <mxCell id="aeTmZDldJjY8Ou2stDxs-54" value="用户信息" style="edgeLabel;html=1;align=center;verticalAlign=middle;resizable=0;points=[];fontSize=16;" vertex="1" connectable="0" parent="aeTmZDldJjY8Ou2stDxs-31">
          <mxGeometry x="-0.171" relative="1" as="geometry">
            <mxPoint x="1" y="-19" as="offset" />
          </mxGeometry>
        </mxCell>
        <mxCell id="aeTmZDldJjY8Ou2stDxs-43" style="edgeStyle=none;curved=1;rounded=0;orthogonalLoop=1;jettySize=auto;html=1;exitX=0.25;exitY=1;exitDx=0;exitDy=0;entryX=0.165;entryY=0.009;entryDx=0;entryDy=0;fontSize=12;startSize=8;endSize=8;entryPerimeter=0;" edge="1" parent="1" source="aeTmZDldJjY8Ou2stDxs-18" target="aeTmZDldJjY8Ou2stDxs-20">
          <mxGeometry relative="1" as="geometry" />
        </mxCell>
        <mxCell id="aeTmZDldJjY8Ou2stDxs-44" value="人脸历史记录" style="edgeLabel;html=1;align=center;verticalAlign=middle;resizable=0;points=[];fontSize=16;" vertex="1" connectable="0" parent="aeTmZDldJjY8Ou2stDxs-43">
          <mxGeometry x="-0.2876" y="-1" relative="1" as="geometry">
            <mxPoint as="offset" />
          </mxGeometry>
        </mxCell>
        <mxCell id="aeTmZDldJjY8Ou2stDxs-17" value="信息管理" style="rounded=1;whiteSpace=wrap;html=1;fontSize=16;arcSize=33;" vertex="1" parent="1">
          <mxGeometry x="100" y="-310" width="120" height="60" as="geometry" />
        </mxCell>
        <mxCell id="aeTmZDldJjY8Ou2stDxs-18" value="用户信息表" style="shape=partialRectangle;whiteSpace=wrap;html=1;left=0;right=0;fillColor=none;fontSize=16;" vertex="1" parent="1">
          <mxGeometry x="340" y="-312" width="120" height="60" as="geometry" />
        </mxCell>
        <mxCell id="aeTmZDldJjY8Ou2stDxs-34" style="edgeStyle=none;curved=1;rounded=0;orthogonalLoop=1;jettySize=auto;html=1;exitX=1;exitY=0.5;exitDx=0;exitDy=0;entryX=0;entryY=0.5;entryDx=0;entryDy=0;fontSize=12;startSize=8;endSize=8;" edge="1" parent="1" source="aeTmZDldJjY8Ou2stDxs-19" target="aeTmZDldJjY8Ou2stDxs-20">
          <mxGeometry relative="1" as="geometry" />
        </mxCell>
        <mxCell id="aeTmZDldJjY8Ou2stDxs-42" value="人像信息" style="edgeLabel;html=1;align=center;verticalAlign=middle;resizable=0;points=[];fontSize=16;" vertex="1" connectable="0" parent="aeTmZDldJjY8Ou2stDxs-34">
          <mxGeometry x="-0.1123" y="1" relative="1" as="geometry">
            <mxPoint as="offset" />
          </mxGeometry>
        </mxCell>
        <mxCell id="aeTmZDldJjY8Ou2stDxs-19" value="图像采集" style="rounded=1;whiteSpace=wrap;html=1;fontSize=16;arcSize=33;" vertex="1" parent="1">
          <mxGeometry x="-190" y="-50" width="120" height="60" as="geometry" />
        </mxCell>
        <mxCell id="aeTmZDldJjY8Ou2stDxs-35" style="edgeStyle=none;curved=1;rounded=0;orthogonalLoop=1;jettySize=auto;html=1;exitX=1;exitY=0.5;exitDx=0;exitDy=0;entryX=0;entryY=0.5;entryDx=0;entryDy=0;fontSize=12;startSize=8;endSize=8;" edge="1" parent="1" source="aeTmZDldJjY8Ou2stDxs-20" target="aeTmZDldJjY8Ou2stDxs-27">
          <mxGeometry relative="1" as="geometry" />
        </mxCell>
        <mxCell id="aeTmZDldJjY8Ou2stDxs-45" value="处理数据" style="edgeLabel;html=1;align=center;verticalAlign=middle;resizable=0;points=[];fontSize=16;" vertex="1" connectable="0" parent="aeTmZDldJjY8Ou2stDxs-35">
          <mxGeometry x="-0.4141" y="-1" relative="1" as="geometry">
            <mxPoint x="25" y="-21" as="offset" />
          </mxGeometry>
        </mxCell>
        <mxCell id="aeTmZDldJjY8Ou2stDxs-57" style="edgeStyle=none;curved=1;rounded=0;orthogonalLoop=1;jettySize=auto;html=1;exitX=0.75;exitY=0;exitDx=0;exitDy=0;entryX=0.75;entryY=1;entryDx=0;entryDy=0;fontSize=12;startSize=8;endSize=8;" edge="1" parent="1" source="aeTmZDldJjY8Ou2stDxs-20" target="aeTmZDldJjY8Ou2stDxs-18">
          <mxGeometry relative="1" as="geometry" />
        </mxCell>
        <mxCell id="aeTmZDldJjY8Ou2stDxs-58" value="更新人脸信息" style="edgeLabel;html=1;align=center;verticalAlign=middle;resizable=0;points=[];fontSize=16;" vertex="1" connectable="0" parent="aeTmZDldJjY8Ou2stDxs-57">
          <mxGeometry x="-0.1854" y="-1" relative="1" as="geometry">
            <mxPoint as="offset" />
          </mxGeometry>
        </mxCell>
        <mxCell id="aeTmZDldJjY8Ou2stDxs-20" value="图像处理" style="rounded=1;whiteSpace=wrap;html=1;fontSize=16;arcSize=33;" vertex="1" parent="1">
          <mxGeometry x="30" y="-50" width="120" height="60" as="geometry" />
        </mxCell>
        <mxCell id="aeTmZDldJjY8Ou2stDxs-29" style="edgeStyle=none;curved=1;rounded=0;orthogonalLoop=1;jettySize=auto;html=1;exitX=1;exitY=0.5;exitDx=0;exitDy=0;fontSize=12;startSize=8;endSize=8;" edge="1" parent="1" source="aeTmZDldJjY8Ou2stDxs-22" target="aeTmZDldJjY8Ou2stDxs-17">
          <mxGeometry relative="1" as="geometry" />
        </mxCell>
        <mxCell id="aeTmZDldJjY8Ou2stDxs-30" value="合法信息" style="edgeLabel;html=1;align=center;verticalAlign=middle;resizable=0;points=[];fontSize=16;" vertex="1" connectable="0" parent="aeTmZDldJjY8Ou2stDxs-29">
          <mxGeometry x="-0.391" y="6" relative="1" as="geometry">
            <mxPoint x="13" y="-14" as="offset" />
          </mxGeometry>
        </mxCell>
        <mxCell id="aeTmZDldJjY8Ou2stDxs-22" value="1.信息处理" style="rounded=1;whiteSpace=wrap;html=1;fontSize=16;arcSize=33;" vertex="1" parent="1">
          <mxGeometry x="-140" y="-310" width="120" height="60" as="geometry" />
        </mxCell>
        <mxCell id="aeTmZDldJjY8Ou2stDxs-25" value="个人信息" style="text;html=1;align=center;verticalAlign=middle;resizable=0;points=[];autosize=1;strokeColor=none;fillColor=none;fontSize=16;" vertex="1" parent="1">
          <mxGeometry x="-245" y="-282" width="90" height="30" as="geometry" />
        </mxCell>
        <mxCell id="aeTmZDldJjY8Ou2stDxs-38" style="edgeStyle=none;curved=1;rounded=0;orthogonalLoop=1;jettySize=auto;html=1;exitX=0.5;exitY=1;exitDx=0;exitDy=0;entryX=0.5;entryY=0;entryDx=0;entryDy=0;fontSize=12;startSize=8;endSize=8;" edge="1" parent="1" source="aeTmZDldJjY8Ou2stDxs-27" target="aeTmZDldJjY8Ou2stDxs-28">
          <mxGeometry relative="1" as="geometry" />
        </mxCell>
        <mxCell id="aeTmZDldJjY8Ou2stDxs-27" value="签到处理" style="rounded=1;whiteSpace=wrap;html=1;fontSize=16;arcSize=33;" vertex="1" parent="1">
          <mxGeometry x="270" y="-50" width="120" height="60" as="geometry" />
        </mxCell>
        <mxCell id="aeTmZDldJjY8Ou2stDxs-28" value="签到表" style="shape=partialRectangle;whiteSpace=wrap;html=1;left=0;right=0;fillColor=none;fontSize=16;" vertex="1" parent="1">
          <mxGeometry x="270" y="130" width="120" height="60" as="geometry" />
        </mxCell>
        <mxCell id="aeTmZDldJjY8Ou2stDxs-52" style="edgeStyle=none;curved=1;rounded=0;orthogonalLoop=1;jettySize=auto;html=1;exitX=0;exitY=0.5;exitDx=0;exitDy=0;entryX=1;entryY=0.5;entryDx=0;entryDy=0;fontSize=12;startSize=8;endSize=8;" edge="1" parent="1" source="aeTmZDldJjY8Ou2stDxs-47" target="aeTmZDldJjY8Ou2stDxs-18">
          <mxGeometry relative="1" as="geometry" />
        </mxCell>
        <mxCell id="aeTmZDldJjY8Ou2stDxs-47" value="个人信息管理" style="rounded=1;whiteSpace=wrap;html=1;fontSize=16;arcSize=33;" vertex="1" parent="1">
          <mxGeometry x="550" y="-297" width="120" height="60" as="geometry" />
        </mxCell>
        <mxCell id="aeTmZDldJjY8Ou2stDxs-49" style="edgeStyle=none;curved=1;rounded=0;orthogonalLoop=1;jettySize=auto;html=1;exitX=0.25;exitY=1;exitDx=0;exitDy=0;entryX=1;entryY=0.5;entryDx=0;entryDy=0;fontSize=12;startSize=8;endSize=8;" edge="1" parent="1" source="aeTmZDldJjY8Ou2stDxs-48" target="aeTmZDldJjY8Ou2stDxs-28">
          <mxGeometry relative="1" as="geometry" />
        </mxCell>
        <mxCell id="aeTmZDldJjY8Ou2stDxs-48" value="签到管理" style="rounded=1;whiteSpace=wrap;html=1;fontSize=16;arcSize=33;" vertex="1" parent="1">
          <mxGeometry x="520" y="10" width="120" height="60" as="geometry" />
        </mxCell>
      </root>
    </mxGraphModel>
  </diagram>
</mxfile>
